<?xml version="1.0" encoding="UTF-8"?>
<svg id="Layer_1" data-name="Layer 1" xmlns="http://www.w3.org/2000/svg" xmlns:xlink="http://www.w3.org/1999/xlink" viewBox="0 0 294.76 690">
  <defs>
    <style>
      .cls-1 {
        fill: none;
      }

      .cls-2 {
        fill: #f2704d;
      }

      .cls-3 {
        clip-path: url(#clippath-1);
      }

      .cls-4 {
        clip-path: url(#clippath-3);
      }

      .cls-5 {
        clip-path: url(#clippath-2);
      }

      .cls-6 {
        fill: #fff;
      }

      .cls-7 {
        opacity: .25;
      }

      .cls-8 {
        clip-path: url(#clippath);
      }
    </style>
    <clipPath id="clippath">
      <rect class="cls-1" x="43.66" y="47.25" width="616.2" height="792.09" transform="translate(-78.12 75.26) rotate(-11)"/>
    </clipPath>
    <clipPath id="clippath-1">
      <rect class="cls-1" x="43.66" y="47.25" width="616.2" height="792.09" transform="translate(-78.12 75.26) rotate(-11)"/>
    </clipPath>
    <clipPath id="clippath-2">
      <rect class="cls-1" x="57.91" y="110.45" width="519.69" height="682.85" transform="translate(-80.38 68.93) rotate(-11)"/>
    </clipPath>
    <clipPath id="clippath-3">
      <rect class="cls-1" x="51.45" y="133.42" width="518.84" height="613.98" transform="translate(-78.32 67.41) rotate(-11)"/>
    </clipPath>
  </defs>
  <g id="Group_95" data-name="Group 95">
    <g class="cls-8">
      <g id="Group_94" data-name="Group 94">
        <g id="Group_93" data-name="Group 93">
          <g class="cls-3">
            <g id="Group_92" data-name="Group 92">
              <path id="Path_388" data-name="Path 388" class="cls-2" d="M675.2,664.39c32.77-79.9,19.51-133.83-66.24-253.87-17.12-23.96-58.13-62.77-52.64-86.61,12.07-52.41-44.22-106.33-44.22-106.33,30.65,74.53-60.66,81.96-110.21-10.65-28.94-54.1,12.28-37.34,12.28-37.34,0,0-26.83-42.44-62.72,10.49-6.21,9.16-7.97,13.91-11.38-.15-4.84-19.92-23.78-32.28-64.9-22.39,12.85,15.01,38.6,48.3.77,42.9-25.99-3.71-151.31-36.21-86.15-129.12,0,0-147.13,68.72-65.36,183.59,81.77,114.87-.46,96.4-10.02,58.58-4.96-19.65-17.9-63.74-105.45-37.91,0,0,46.87-.7,70.01,29.56,23.14,30.26,19.39,73.94,23.34,101.92,17.34,122.99,77.59,188.14,41.55,186.23-36.03-1.91-68.53-40.56-67.86-113.51,0,0-66.88,128.11,88.67,247.96,155.55,119.85,333.75,56.35,333.75,56.35,0,0,86.05,101.5,176.79-119.72"/>
              <path id="Path_389" data-name="Path 389" class="cls-2" d="M75.86,453.18s43.25-53.6-50.06-74.38c25.85,23.2,43.34,47.86,50.06,74.38"/>
              <path id="Path_390" data-name="Path 390" class="cls-2" d="M267.96,152.11c-23.52-14.13-76.43-29.81-43.4-73.62,0,0,.83,31,43.4,73.62"/>
              <g id="Group_88" data-name="Group 88" class="cls-7">
                <g id="Group_87" data-name="Group 87">
                  <g class="cls-5">
                    <g id="Group_86" data-name="Group 86">
                      <path id="Path_391" data-name="Path 391" class="cls-6" d="M384.17,786.78c-301.8-3.2-317.29-268.3-315.45-263.37,41.88,111.99,174.52,80.69,119.63,20.49-77.52-85.04-76.21-206.03-76.21-206.03,0,0,3.97,20.43,75.1,22.76s206.7,128.43,48.99-2.46c-157.7-130.88-119.65-194.82-89.38-220.9,0,0,24.01,69.17,109.79,73.54,59.24,3.01,64.72-10.22,31.14-49.1,42.92-.52,43.56,13.58,52.26,52.96,3.07,13.89,5.88-40.6,54.3-52.33,0,0-51.51,26.16,38.73,99.38,51.78,42.01,80.52,40.82,90.46-14.38,44.39,64.02,3.03,50.31,42.5,131.47,43.08,88.6-122.64,302.37-181.88,407.98"/>
                    </g>
                  </g>
                </g>
              </g>
              <g id="Group_91" data-name="Group 91" class="cls-7">
                <g id="Group_90" data-name="Group 90">
                  <g class="cls-4">
                    <g id="Group_89" data-name="Group 89">
                      <path id="Path_392" data-name="Path 392" class="cls-6" d="M371.84,741.29s-122.75,4.52-165.04-13.53c-136.12-58.1-137.1-141.13-132.53-197.89,0,0,6.18,55.93,40.02,72.61,21.81,10.75,52.63,4.15,47.35-24.14-27.23-146-1.33-105.87-37.37-222.09,0,0,7.45,16.62,56.41-30.88,53.42-51.81-72.57-90.91-31.43-164.46,5.66-10.13,33.75,10.22,67.42,27.66,28.27,14.65,45.17,36.82,73.27,26.24,18.7-7.04,6.4-49.44,40.8-42.01,0,0-15.67,18.85,8.87,34.45,19.92,12.66,32.89-43.77,32.89-43.77,0,0,10.74,5.88,14.06,31.85,1.84,14.35-2.13,27.86,29.86,55.69,82.77,72.01,117.99-.42,117.99-.42-8.98,25.93,14.22,136.4,29.1,130.06l-191.69,360.61Z"/>
                    </g>
                  </g>
                </g>
              </g>
            </g>
          </g>
        </g>
      </g>
    </g>
  </g>
</svg>