<svg data-name="Left curly brace" xmlns="http://www.w3.org/2000/svg" viewBox="0 0 69.68 252.2">
  <path d="M23.14,125.97c2.77,1.56,5.29,3.43,7.54,5.6,2.25,2.17,4.16,4.9,5.72,8.2,1.56,3.3,2.73,7.29,3.51,11.97.78,4.69,1.17,10.24,1.17,16.66v27.85c0,8.15.17,14.96.52,20.43.35,5.46,1.43,9.89,3.25,13.28,1.82,3.38,4.64,5.76,8.45,7.16,3.81,1.39,9.27,2.08,16.38,2.08v13h-2.08c-8.32,0-15.25-.96-20.8-2.86-5.55-1.91-9.92-4.69-13.13-8.34-3.21-3.65-5.46-8.17-6.76-13.55-1.3-5.39-1.95-11.64-1.95-18.76v-50.55c0-3.13-.48-6.21-1.43-9.25-.95-3.04-2.47-5.78-4.55-8.21s-4.68-4.43-7.8-5.99c-3.12-1.56-6.85-2.35-11.18-2.35v-12.74c4.33,0,8.06-.78,11.18-2.34,3.12-1.56,5.72-3.55,7.8-5.98,2.08-2.43,3.6-5.16,4.55-8.19.95-3.03,1.43-6.11,1.43-9.23v-50.44c0-6.93.65-13.13,1.95-18.59,1.3-5.46,3.55-10.01,6.76-13.65,3.21-3.64,7.58-6.41,13.13-8.32,5.55-1.91,12.48-2.86,20.8-2.86h2.08v13c-7.11,0-12.57.69-16.38,2.08-3.81,1.39-6.63,3.77-8.45,7.16-1.82,3.38-2.9,7.81-3.25,13.28-.35,5.47-.52,12.28-.52,20.43v27.85c0,6.42-.39,11.93-1.17,16.53-.78,4.6-1.95,8.55-3.51,11.84-1.56,3.3-3.47,6.03-5.72,8.2-2.25,2.17-4.77,4.04-7.54,5.6Z"/>
</svg>
