<svg class="logo-bad-egg-digital" data-name="Bad Egg Digital Logo" xmlns="http://www.w3.org/2000/svg" viewBox="0 0 457.89 379.51">
  <g class="logo-fire">
    <g class="fill-tertiary-light">
      <path d="M141.39,202.64c.06-.84-1.16-.67.32-21.61.94-13.33,3.22-24.88,8.1-43.49.09-.33.32-2.74,1.26-2.56.05-.17.93-6.41,1.54-8.46,5.95-20.08,16.5-38.39,29.53-46.28,13.02-7.89,44.03,3.08,49.77,4.32,5.22,1.13,13.71,8.74,17.99,12.05-.21-2.57,2.18-.89,2.18-.89,13.67,7.6,22.6,15.12,27.2,20.35,5.7,6.48,6.01,12.32,6.01,12.32v-.02c.05-1.81,4.38-4.01,5.1-3.33,0,0,17.47,16.79,24.18,26.23,3.29,4.62,13.22,14.92,13.74,15.67,1.32,1.92,5.6,6.79,10.31,12.93-6.34-11.5-14.02-25.26-10.61-32.92,9.9-22.28-10.48-51.13-10.48-51.13,7.19,35.81-34.08,31.22-48.11-14.27-8.2-26.57,8.69-15.55,8.69-15.55,0,0-8.26-21.2-28.81-.76-3.56,3.54-4.75,5.5-5.05-1.05-.43-9.28-7.79-16.42-26.94-15.58,4.42,7.79,13,24.83-3.37,19.15-11.24-3.9-64.19-29.19-27.16-64.9,0,0-71.4,17.85-44.96,76.03,26.45,58.18-8.54,42.85-9.52,25.2-.51-9.17-2.45-29.91-43.64-25.99,0,0,20.92,3.74,28.59,19.21,7.68,15.47,2.23,34.57,1.57,47.37-2.92,56.22,18.25,90.42,2.38,86.45-15.87-3.97-26.98-23.97-20.37-56.37,0,0-40.84,51.21,18,117.99,14.94,16.95,31.55,28.77,48.01,36.97-9.22-12.27-20.43-33.43-23.62-64.65-2.6-25.39-4.36-25.48-1.83-62.45Z"/>
      <path d="M87.22,125.5c9.5,12.56,15.15,25.04,15.84,37.42,0,0,23.88-20.11-15.84-37.42Z"/>
      <path d="M214.57,45.58c-15.25-22.65-12.94-36.51-12.94-36.51-18.49,16.64,3.7,28.19,12.94,36.51Z"/>
      <path d="M287.95,83.42c12.69,2.11,15.22-.85,26.22,9.3-5.92-17.76-26.22-4.23-21.14-27.49,0,0-17.76,16.07-5.07,18.18Z"/>
    </g>
    <g class="fill-tertiary-lighter">
      <path d="M257.82,64.26c-7.14,3.69-11.45,9.7-13.88,13.35,5.09,1.21,10.79-7.65,13.88-13.35Z"/>
      <path d="M241.14,75.79c-.14-6.18-.31-10.8-1.63-14.31-1.92,2.34-4.83,7.76,1.63,14.31Z"/>
      <path d="M284.46,115.22c-1.9-1.96-3.87-4.15-5.91-6.59-8.26-9.86-12.99-17.74-15.44-24.02.51,4.28,2.59,9.68,8.96,17.84,4.32,5.53,8.46,9.69,12.39,12.78Z"/>
      <path d="M238.56,59.47c-2.33-3.94-6.88-6.25-16-7.9,2.87,5.01,4.8,9.1,5.7,12.34,2.15-3.45,4.97-5.94,10.31-4.43Z"/>
      <path d="M112.53,275.42c10.08,16.33,25.22,32.22,47.84,44.55-2.82-4.8-5.61-10.37-8.13-16.78-5.95-2.1-11.11-4.37-14.66-6.78-10.4-7.04-18.61-14.06-25.05-20.99Z"/>
      <path d="M322.88,117.04c-2.61,9.92-3.15,28.99-1.73,42.06,1.61,1.79,3.2,3.51,4.48,4.89-5.61-27.45,5.32-24.85-2.75-46.95Z"/>
      <path d="M93.82,193.55c-.09-.52-.95,4.98-.76,14.15.6-2.9,1.28-5.69,2-8.35-.48-1.86-.9-3.78-1.24-5.8Z"/>
      <path d="M269.92,61.06c-2.93.13-5.58.66-7.97,1.45.43.96.86,2.2,1.19,3.78,2.67-4.06,6.78-5.24,6.78-5.24Z"/>
      <path d="M320.05,110.05c-1.64,4.24-3.41,7.64-5.31,10.26,3.22-1.59,5.73-3.61,7.41-5.2-.61-1.57-1.3-3.24-2.1-5.06Z"/>
      <path d="M107.25,232.67c6.12,4.65,14.92,5.92,19.72,1.83-12.01-3.04-25.57-13.46-31.36-33.13.09,7.76,1.57,23.64,11.64,31.29Z"/>
      <path d="M132.98,123.99s.79,3.31,8.21,1.2c-12-5.47-12.01-10.43-12.01-10.43,0,0-6.76,32.88,3.29,68.51,2.14-19.33,4.61-21.79.51-59.28Z"/>
      <path d="M160.99,39.24c.93-1.1,2.4-1.03,4.33-.15-2.7-6.11-3.35-10.58-3.35-10.58-13.34,7.62-31.51,26.9-.76,76.48,2.06-3.96,4.32-7.66,6.75-11.01-5.31-16.05-23.49-35.2-6.97-54.74Z"/>
      <path d="M218.93,75.39c1.54-.26,2.75-1.07,3.79-2.2-3.98.43-9.99-.42-18.26-2.47-.68-.17-1.33-.36-1.99-.54,4.64,3.91,9.5,6.39,16.46,5.21Z"/>
      <path d="M228.26,63.91c-1.92,3.08-3.33,6.9-5.54,9.29,5.46-.59,7.11-3.61,5.54-9.29Z"/>
      <path d="M95.72,196.91c-.22.8-.45,1.61-.67,2.44.18.69.36,1.37.56,2.03-.03-2.74.11-4.47.11-4.47Z"/>
      <path d="M260.1,59.69s-.87,1.95-2.28,4.57c1.28-.66,2.66-1.26,4.13-1.74-.91-2.03-1.85-2.82-1.85-2.82Z"/>
      <path d="M112.53,275.42c-15.72-25.47-19.14-51.99-19.47-67.72-3.88,18.92-3.81,42.69,19.47,67.72Z"/>
      <path d="M130.41,226.03c-.03,3.94-1.36,6.71-3.44,8.48,4.89,1.24,9.52,1.25,13.26.17-.2-6.7.04-15.05.96-28.99-3.78-7.41-6.61-14.97-8.71-22.42-.99,8.94-1.9,21.48-2.06,42.76Z"/>
      <path d="M240.71,60.23c-.76-.33-1.47-.57-2.15-.76.37.63.68,1.29.95,2.01.66-.81,1.2-1.25,1.2-1.25Z"/>
      <path d="M243.93,77.61c-.77-.18-1.52-.6-2.25-1.29-.19-.18-.36-.36-.54-.54.03,1.23.05,2.51.09,3.86.06,2.23.81.81,2.7-2.04Z"/>
      <path d="M202.47,70.18c-4.31-3.63-8.43-8.49-13.87-12.8-9.8-7.76-18.15-15.94-23.28-18.29,4.49,10.16,14.7,24.84,37.15,31.09Z"/>
      <path d="M263.11,84.61c-.43-3.67.29-6.5.49-9.52.24-3.68-.01-6.56-.47-8.78-2.32,3.54-3.55,9.26-.02,18.31Z"/>
      <path d="M152.03,129.14c.2-1.06.4-2.02.58-2.62.8-2.69,1.68-5.34,2.64-7.95-6.28,3.73-10.8,5.7-14.05,6.62,2.87,1.31,6.43,2.65,10.84,3.95Z"/>
      <path d="M324.6,112.46s-.85,1.13-2.45,2.65c.26.66.5,1.31.73,1.93.5-1.89,1.07-3.46,1.72-4.58Z"/>
      <path d="M314.74,120.31c-7.08,3.48-17.59,4.85-30.28-5.09,12.93,13.36,22.68,15.6,30.28,5.09Z"/>
    </g>
    <g class="fill-tertiary-lightest">
      <path d="M132.98,123.99c4.09,37.49,1.62,39.95-.51,59.28,2.1,7.44,4.93,15.01,8.71,22.42.07-.99.13-2,.2-3.05.06-.84-1.16-.67.32-21.61.94-13.33,3.22-24.88,8.1-43.49.09-.33.32-2.74,1.26-2.56.03-.12.48-3.27.96-5.84-4.41-1.31-7.97-2.64-10.84-3.95-7.42,2.11-8.21-1.2-8.21-1.2Z"/>
      <path d="M126.97,234.51c-4.8,4.09-13.6,2.82-19.72-1.83-10.07-7.65-11.55-23.53-11.64-31.29-.2-.67-.38-1.34-.56-2.03-.71,2.66-1.4,5.45-2,8.35.32,15.73,3.75,42.25,19.47,67.72,6.44,6.92,14.65,13.95,25.05,20.99,3.55,2.41,8.71,4.68,14.66,6.78-4.11-10.48-7.49-23.14-9.02-38.11-1.49-14.54-2.7-20.79-2.99-30.41-3.74,1.08-8.37,1.07-13.26-.17Z"/>
      <path d="M322.88,117.04c-.23-.62-.47-1.27-.73-1.93-1.68,1.6-4.19,3.62-7.41,5.2-7.6,10.5-17.34,8.26-30.28-5.09-3.93-3.08-8.08-7.25-12.39-12.78-6.37-8.16-8.45-13.56-8.96-17.84-3.52-9.04-2.3-14.77.02-18.31-.33-1.58-.76-2.82-1.19-3.78-1.47.49-2.85,1.08-4.13,1.74-3.09,5.7-8.8,14.57-13.88,13.35-1.89,2.85-2.65,4.27-2.7,2.04-.03-1.36-.06-2.64-.09-3.86-6.46-6.55-3.55-11.96-1.63-14.31-.27-.71-.58-1.38-.95-2.01-5.34-1.51-8.15.99-10.31,4.43,1.57,5.68-.08,8.69-5.54,9.29-1.04,1.12-2.25,1.94-3.79,2.2-6.96,1.18-11.81-1.3-16.46-5.21-22.45-6.25-32.66-20.93-37.15-31.09-1.92-.88-3.4-.94-4.33.15-16.52,19.54,1.66,38.69,6.97,54.74,4.25-5.85,9.02-10.62,14.17-13.74,13.02-7.89,44.03,3.08,49.77,4.32,5.22,1.13,13.71,8.74,17.99,12.05-.21-2.57,2.18-.89,2.18-.89,13.67,7.6,22.6,15.12,27.2,20.35,5.7,6.48,6.01,12.32,6.01,12.32v-.02c.05-1.81,4.38-4.01,5.1-3.33,0,0,17.47,16.79,24.18,26.23,1.4,1.97,4.01,4.97,6.59,7.83-1.43-13.07-.89-32.14,1.73-42.06Z"/>
    </g>
  </g>
  <path class="logo-outline fill-primary-darker" data-name="Egg Outline" d="M367.14,240.71c-1.14-7.36-5.98-15.47-6.58-17-.65-1.67-3.38-4.57-7.56-18.94-4.34-14.92-21.77-33.58-24.68-37.83-.51-.75-10.45-11.05-13.74-15.67-3.97-5.57-11.68-13.71-17.34-19.44.68-2.19,1.08-4.65,1.17-7.42.1-3.15-.17-6.48-.81-10.01-.64-3.52-1.75-6.77-3.3-9.73-.89-1.6-2.2-3.18-3.93-4.77-1.73-1.58-3.78-2.84-6.15-3.77-2.37-.93-5.07-1.36-8.08-1.31-3.02.06-6.26.93-9.72,2.62-2,.97-3.93,2.1-5.82,3.39-2.61-1.68-5.43-3.39-8.52-5.1,0,0-2.39-1.68-2.18.89-4.29-3.32-12.77-10.92-17.99-12.05-5.74-1.24-36.74-12.21-49.77-4.32-13.02,7.89-23.57,26.2-29.53,46.28-.61,2.05-1.49,8.29-1.54,8.46-.95-.18-1.18,2.23-1.26,2.56-4.88,18.61-7.16,30.16-8.1,43.49-1.48,20.94-.26,20.77-.32,21.61-2.53,36.97-.76,37.06,1.83,62.45,5.44,53.22,34.17,77.23,36.65,77.76l9.17,2.08c-1.24.3-4.18,1.17-3.82,1.47,26.67,34.82,71.26,35.14,110.77,22.92,33.72-10.44,53.36-38.78,59.06-49.83,7.09-13.75,8.76-19.89,10.53-29.44,2.05-5.27,6.94-14.66,1.57-49.35ZM270.02,103.81c2.82-1.37,5.27-1.57,7.32-.6,2.05.98,3.83,2.9,5.35,5.77.98,2.01,1.71,4.27,2.21,6.79.49,2.52.64,5.13.43,7.83-.07.94-.21,1.88-.38,2.81-.56-2.25-1.99-6.15-5.66-10.32-2.61-2.96-6.6-6.66-12.06-10.69.9-.59,1.84-1.11,2.8-1.58Z"/>
  <path class="logo-egg fill-secondary-light" data-name="Egg Foreground" d="M362.04,227.71c-.53-1.54-2.3-2.08-2.9-3.61-.65-1.67-4.04-6.32-5.74-14.22-.01-.05-.02-.1-.03-.15-.02-.07-.02-.14-.04-.21,0,0,0,0,0,0-.49-2.53-1.28-4.05-1.89-5.15-6.3-11.38-14.5-23.74-23.97-36.1-.13-.17-.25-.34-.38-.51-.55-.72-10.08-12.52-11.37-14.04-8.18-9.61-17.01-18.98-26.19-27.63-.72-.68-.97.52-1.01,2.33-.02,1.11.02,2.43.09,3.71,0,0,0,0,0-.01,0,0-3.22-4.74-5.65-8.59-.81-1.29-1.53-2.48-2.01-3.36-.02-.03-.04-.07-.06-.1,0,0,.03.05.04.07-2.75-4.17-5.14-6.23-6.69-7.5-7.27-5.93-14.65-11.27-22.01-15.85-.18-.11-.35-.23-.53-.34-.87-.54-1.13.11-1.11,1.18,0,.29.03.62.07.96,0-.01,0-.03,0-.04l-7.75-6.16-.35-.28s-.5-.38-.47-.35c-2.69-2.05-5.12-3.32-6.25-3.83-17.06-7.71-33.47-10.2-47.52-4.69-15.52,6.09-26.53,21.31-33.85,41.34-.65,1.79-2.83,8.58-.9,18.83.03.16.04.23.04.26-.45-1.49-.81-2.97-1.22-4.2,0-.01,0-.03-.01-.04-.77-2.23-1.08-2.7-1.08-2.7,0,0,0,0-.01,0-.17-.31-.32-.47-.44-.42,0,0,0,0,0,0-.07.03-.13.1-.17.26-.02.08-.04.16-.06.24-.63,2.32-1.16,4.75-1.71,7.15-2.71,14.08-6.51,42.35-5.65,46.43,1.26,5.98,1.37,7.82,2.28,11.12.11.37.21.71.33,1.09.56,1.55,2.68,4.71,7.36,11.34,0,0-.06-.04-.15-.11-3.55-2.47-5.14-5.24-5.14-5.24h0c-1.71-2.31-2.73-3.58-3.36-4.31-.78-.92-.95-.98-.95-.98,0,0,0,0,0,0-.61-.6-1.05-.76-1.1-.08,0,.04-.02.06-.02.11-.14,17.01.96,34.01,3.02,49.7.24,1.8,1.86,12.25,1.93,12.66,0,.04.02.08.02.13,2.49,14.27,5.81,26.99,9.73,37,5.06,12.9,12.3,24.29,21.13,33.92,1.75,1.91,6.6,4.5,8.96,5.53,2.56,1.11,4.24,1.91,5.38,2.53.05.02.08.03.08.03,4.97,1.82,5.85,5.73,5.85,5.73,0,0,.03.16.03.22h0s0,.03-.02,0c-.01-.02-.03-.05-.05-.15-.07-.22-.78-1.15-1.65-2.11-.06-.07-.12-.13-.19-.2-.9-.97-1.94-1.93-2.64-2.19l-.03-.03s-.03,0-.04.01c-1.24.3-3.44.12-4.41.08,0,0,.01,0,.01,0-.91-.07-1.5-.06-1.14.25,29.63,24.93,71.63,33.27,110.22,18.13,32.16-12.61,54.97-38.8,64.44-69.42.26-.84-.02-4.11,2.68-11.74-.01.02-.02.04-.04.06.32-.82.56-1.51.63-1.94,3.04-17.51,1.78-35.96-4.33-53.82ZM251.4,102.97c-.02-.29-.08-.56-.12-.84.09.45.14.75.12.84Z"/>
  <g class="logo-egg-shadows fill-secondary" data-name="Egg Shadows">
    <path d="M286.36,139.29c-.39.8,1.96.15,2.39-2.44,0-.02,0-.03,0-.05.03-.17.04-.31.06-.47.19-1.45.1-2.47-.21-4.2,0,0,0,0,0-.01,0,0-3.22-4.74-5.65-8.59-.81-1.29-1.53-2.48-2.01-3.36-.02-.03-.04-.07-.06-.1,0,0,.03.05.04.07.38.73,7.59,14.68,5.44,19.15Z"/>
    <path d="M155.51,148.05c-.87-1.26-1.45-2.81-1.92-4.36-.45-1.49-.81-2.97-1.22-4.2,0-.01,0-.03-.01-.04-.77-2.23-1.08-2.7-1.08-2.7,0,0,0,0-.01,0-.02-.01-.21-.15-.36.2-.54,1.18,1.62,10.1,4.62,11.11Z"/>
    <path d="M153.19,213.94s-.06-.04-.15-.11c-3.55-2.47-5.14-5.24-5.14-5.24h0c-1.71-2.31-2.73-3.58-3.36-4.31-.78-.92-.95-.98-.95-.98,0,0,0,0,0,0-.76-.51-.22,2.95.61,4.87.87,2.03,9,5.78,9,5.78Z"/>
    <path d="M196.88,348.52c-.06-.07-.12-.13-.19-.2-.9-.97-1.94-1.93-2.64-2.19l-.03-.03s-.03,0-.04.01c-1.24.3-3.44.12-4.41.08,0,0,.01,0,.01,0,2.57.46,7.59,4.31,8.8,4.65.14.04.2,0,.21-.06-.01-.02-.03-.05-.05-.15-.07-.22-.78-1.15-1.65-2.11Z"/>
    <path d="M362.04,227.71c-.53-1.54-2.3-2.08-2.9-3.61-.65-1.67-4.04-6.32-5.74-14.22-.01-.05-.02-.1-.03-.15-.02-.07-.02-.14-.04-.21,1.24,9.65,1.82,28.04-.69,48.57-.46-.3-.93-.71-1.41-1.23-.92-1-1.91-2.48-2.99-4.44-1.08-1.96-2.27-4.56-3.57-7.8-1.31-3.24-1.99-6.28-2.05-9.1-.06-2.83.28-5.62,1-8.36.72-2.74,1.7-5.48,2.94-8.2,1.24-2.72,2.52-5.55,3.86-8.48.49-1.34,1-2.54,1.54-3.62.12-.24.24-.47.36-.71-.3-.7-.6-1.27-.87-1.76-.64-1.16-1.32-2.34-2-3.53-.64-1.1-1.29-2.2-1.95-3.31-1.33,2.56-2.71,5.25-4.16,8.08-3.03,5.78-5.48,10.59-7.36,14.43-1.87,3.84-3.19,7.28-3.96,10.33-.77,3.04-.97,6.01-.61,8.89.36,2.88,1.33,6.28,2.91,10.21,1.15,2.84,2.76,5.79,4.84,8.82,2.08,3.04,4.52,5.66,7.23,7.96,5.17,4.38,8.97,3.06,10.8,4.38,2.6,1.87,1.47,6.16-2.9,11.94-4.62-3.81-9.38-8.25-14.06-12.06-12.67-10.34-26.91-17.79-42.09-22.66.95-.41,1.9-.85,2.84-1.34,5.36-2.77,9.57-6.54,12.65-11.3,3.08-4.75,5.28-9.8,6.63-15.14,1.34-5.34,1.96-10.64,1.86-15.9-.03-1.83-.13-3.56-.27-5.2,3.78,2.16,7.61,2.49,11.48.93,4.46-1.8,7.99-4.52,10.6-8.14-.59-.94-1.21-1.88-1.82-2.82-.18-.28-.36-.56-.55-.84-.71-1.08-1.44-2.17-2.17-3.26-1.13,1.11-2.43,1.97-3.91,2.57-3.73,1.5-6.69,1.24-8.88-.79-2.18-2.02-4.11-5.1-5.77-9.22-1.34-3.34-2.27-7.05-2.77-11.12-.42-3.42-.48-6.74-.22-9.96-.25-.31-.49-.61-.71-.88,0,0,0,0,0,0-.44-.54-.81-.99-1.08-1.31,0,0,0,0,0,0-.13-.16-.24-.29-.32-.38-.99-1.16-1.98-2.31-2.99-3.46-1-1.15-2.02-2.29-3.04-3.43-.87,2.37-1.52,4.85-1.97,7.42-.89,5.15-1.07,10.36-.55,15.62.52,5.27,1.52,9.72,2.98,13.35,1.59,3.93,3.34,7.18,5.26,9.79,0,.65,0,1.38-.01,2.21-.02,2.16-.14,4.61-.39,7.35-.24,2.75-.7,5.66-1.36,8.75-.66,3.08-1.62,6.08-2.85,8.99-1.24,2.9-2.8,5.59-4.68,8.06-1.88,2.46-4.18,4.4-6.91,5.81-3.67,1.9-7.14,2.84-10.43,2.82-3.29-.03-6.29-.7-9.01-2.03-2.72-1.33-5.17-3.19-7.36-5.57-2.19-2.38-4.03-4.9-5.54-7.58-1.6-2.86-2.65-6.14-3.12-9.82-.48-3.69-.4-7.37.26-11.04.66-3.68,1.94-7.23,3.86-10.67,1.91-3.43,4.46-6.45,7.64-9.05,2.03.02,3.99-.11,5.88-.38,1.89-.26,3.4-.69,4.52-1.27,1.41-.73,2.48-1.65,3.23-2.74.74-1.1,1.27-2.27,1.58-3.5.32-1.24.39-2.41.23-3.52-.15-1.11-.43-2.04-.82-2.79-.53-1.03-1.75-1.42-3.64-1.15-1.89.27-3.63.81-5.23,1.64-1.13.59-2.32,1.28-3.56,2.11-1.25.83-2.57,1.72-3.97,2.69-2.71-.62-5.87-1.85-9.5-3.66-3.63-1.81-6.77-4.72-9.43-8.7-3.44-5.25-5.52-10.69-6.24-16.34-.72-5.65-.44-10.97.83-15.98,1.27-5.01,3.39-9.5,6.33-13.47,2.72-3.66,5.86-6.49,9.42-8.52-1.09-.81-2.19-1.6-3.29-2.38-.08-.06-.16-.11-.24-.17-1.1-.78-2.2-1.54-3.31-2.29-2.47,1.59-4.85,3.43-7.13,5.52.19-.93.29-2.09.19-3.33h0c-.02-.3-.08-.56-.12-.84-.15-1.22-.38-2.38-.64-3.52,0-.01,0-.03,0-.04l-7.75-6.16-.35-.28-.56-.44s.05.06.09.09c7.64,7.44,7.15,13.72,7.54,16,0,.01,0,.02,0,.04-.77.76-1.53,1.54-2.27,2.36-4.51,4.96-8.04,10.52-10.58,16.66-2.54,6.15-3.85,12.63-3.93,19.47-.1,6.85,1.66,13.51,5.26,19.98,1.12,2.17,2.66,4.1,4.63,5.82,1.97,1.72,4.17,3.21,6.6,4.45,2.43,1.24,4.98,2.19,7.64,2.84,2.66.65,5.32,1,7.97,1.05-3.12,3.41-5.94,7.16-8.46,11.27-2.52,4.11-4.39,8.5-5.59,13.18-1.21,4.69-1.61,9.54-1.21,14.57.41,5.04,2.02,10.16,4.84,15.37,1.24,2.26,2.69,4.28,4.34,6.08-29.32-1.4-60.02,4.8-88.5,16.92-1.28.54-2.55,1.1-3.82,1.67-6.32,2.83-12.52,5.94-18.55,9.33,2.42,13.05,5.54,24.69,9.19,33.98,5.06,12.9,12.3,24.29,21.13,33.92.11.12.24.24.37.37.07.07.15.14.23.21.01.01.03.02.04.04,0,0,0,0,0,0,1.21,1.05,3.08,2.22,4.86,3.2-2.32-2.05.58-3.73,3.68-4.93,33.96-13.1,83.06-17.95,107.46-13.21,6.71,1.3,23.99,5.01,31.44,5.9,5.32.63,2.09,19.55-35.01,38.84h0c2.43-.76,4.85-1.62,7.26-2.56,21.36-8.38,38.58-22.76,50.53-40.43,0,0,0,0,.01,0,.13-.19.25-.39.38-.58.28-.42.57-.84.85-1.26h-.02c5.45-8.44,9.74-17.57,12.7-27.14.05-.18.09-.48.13-.89h0s0-.07,0-.1c.02-.23.05-.48.08-.79,0-.01,0-.02,0-.03.02-.22.05-.47.09-.74,0-.02,0-.04,0-.06.11-.82.29-1.85.58-3.11.37-1.61.92-3.59,1.79-6.03-.01.02-.02.04-.04.06.32-.82.56-1.51.63-1.94,3.04-17.51,1.78-35.96-4.33-53.82Z"/>
    <path d="M153.27,252.57c1.26-.67,2.43-1.49,3.52-2.43,1.08-.95,1.98-1.93,2.68-2.94,1.02-1.61,2.09-4.09,3.2-7.43.8-2.38,1.56-4.9,2.3-7.55.12.26.25.51.38.76,1.37,2.54,2.86,4.5,4.49,5.91,1.62,1.4,3.35,2.31,5.15,2.7,1.8.39,3.43.45,4.89.16,4.05-.81,7.99-3.08,11.84-6.8,3.84-3.73,7.46-8.47,10.85-14.22.14,1.81.23,3.08.28,3.83.22,1.68.79,3.3,1.69,4.84.9,1.55,2,2.9,3.31,4.03,1.3,1.14,2.69,2,4.16,2.57,1.46.57,2.92.72,4.37.43,1.97-.39,4.05-1.48,6.23-3.26,2.17-1.78,4.39-3.97,6.62-6.58,2.23-2.6,4.4-5.52,6.51-8.74,2.11-3.22,4.08-6.48,5.91-9.75,1.83-3.28,3.47-6.44,4.92-9.47,1.44-3.04,2.59-5.67,3.45-7.89.58-1.41.79-2.53.63-3.36-.17-.83-.49-1.36-.96-1.59-.48-.23-1.04-.22-1.7.01-.65.24-1.23.73-1.73,1.48-.42.62-1.15,1.96-2.2,4-1.05,2.04-2.35,4.43-3.91,7.17-1.56,2.74-3.28,5.64-5.15,8.71-1.87,3.07-3.78,5.93-5.74,8.59-1.96,2.65-3.86,4.92-5.69,6.8s-3.48,2.96-4.94,3.25c-1.25.25-2.5-.1-3.77-1.03-1.26-.94-2.1-2.71-2.51-5.33-.25-1.78-.43-4.18-.54-7.17-.11-3-.23-6.16-.35-9.48,2.4-5.87,4.5-11.98,6.31-18.33,1.81-6.35,3.28-12.63,4.43-18.85,1.13-6.21,1.87-12.16,2.2-17.83.33-5.67.14-10.81-.56-15.42-.54-3.78-1.13-6.74-1.77-8.88-.64-2.14-1.36-3.69-2.14-4.67-.79-.98-1.62-1.51-2.51-1.6-.88-.09-1.84-.04-2.88.17-.83.17-1.68.5-2.55.99-.79.38-1.61.86-2.46,1.46-.85.6-1.72,1.42-2.59,2.46-.57,5.83-1.03,11.37-1.39,16.62-.36,5.25-.68,9.9-.95,13.94-.25,4.69-.52,9.06-.79,13.1-.1,2.72-.18,5.6-.23,8.62-.04,3.03-.13,6.12-.26,9.27-.6-1.39-1.4-2.85-2.41-4.38-1.01-1.53-2.17-2.89-3.48-4.08-1.32-1.19-2.79-2.09-4.41-2.68-1.63-.59-3.33-.71-5.09-.36-4.05.81-7.84,2.77-11.36,5.9-3.54,3.13-6.49,7.01-8.85,11.63-2.37,4.62-4.06,9.84-5.06,15.65-.75,4.34-.97,8.76-.67,13.26-.49,1.9-1,3.83-1.56,5.83-.87,3.11-1.75,6-2.65,8.66-.9,2.66-1.85,4.94-2.85,6.84-1.01,1.9-2,3.06-2.96,3.49-1.16.52-2.17.65-3.04.4-.86-.25-1.64-.74-2.32-1.48-.67-.74-1.27-1.6-1.77-2.6-.42-.83-.75-1.62-1.02-2.39,0,0,0,0,0,0,.21,2.46.45,4.91.71,7.33.03.27.06.54.08.81.27,2.48.56,4.95.88,7.37.03.22.08.57.14,1.02.09.02.17.06.26.08,1.13.19,2.32.15,3.59-.13,1.27-.28,2.53-.76,3.79-1.44ZM173.28,206.96c.66-4.23,1.75-8.3,3.24-12.21l5.24-10.27c2-2.93,4.2-4.64,6.59-5.12,1.66-.33,3.09.06,4.28,1.17,1.19,1.11,2.19,2.48,3,4.1.81,1.62,1.42,3.22,1.85,4.81.42,1.59.7,2.69.82,3.32.25,1.24.64,2.11,1.17,2.6.53.49,1.31.36,2.35-.39.19-.14.35-.28.48-.42.13-.13.29-.28.49-.42-.11,2.18-.14,4.29-.12,6.33.03,2.04.03,4.1.01,6.15-.86,1.68-1.98,3.79-3.36,6.33-1.39,2.54-2.94,5.06-4.64,7.56-1.72,2.5-3.55,4.7-5.49,6.59-1.95,1.9-3.85,3.03-5.72,3.4-2.49.5-4.68-.2-6.57-2.1-1.88-1.89-3.22-5.35-4-10.37-.41-3.15-.29-6.84.39-11.08Z"/>
  </g>
  <g class="logo-egg-highlights fill-secondary-lighter" data-name="Egg Highlight">
    <path d="M166.5,177.87c1.28-7.24,4.89-15.22,5.12-15.75.69-1.62,4.62,6.15,4.62,6.15-2.54-11.88,5.15-6.97,3.98-33.84-1.75-39.89,25.34-49.23,25.34-49.23,0,0-19.38,3.65-23.33,9.99-9.58,15.39-11.57,59.06-11.57,59.06,0,0-1.82-8.32-5.22,9.94-.66,3.53-1.07,7.87-1.2,12.58-.36,13.22,1.39,6,2.26,1.09Z"/>
    <path d="M166.94,242.84c-.35-2.13-2.16-1.61-1.67,5.68.31,4.56.76,8.15,1.26,10.98,1.27-.57,2.54-1.13,3.82-1.67-1.54-5-2.63-10.14-3.42-14.99Z"/>
  </g>
  <g class="logo-wordmark fill-primary-darker" data-name="Bad Egg Wordmark">
    <path d="M454.21,121.83c-.33-.7-.88-1.04-1.65-1-.78.03-1.6.42-2.46,1.15-.87.74-1.55,1.79-2.04,3.17-.64,1.63-1.74,3.75-3.28,6.37-1.55,2.63-3.35,5.45-5.43,8.47-2.08,3.02-4.31,6.03-6.71,9.01-2.39,3-4.77,5.62-7.14,7.87-.09-4.15-.17-8.41-.26-12.78-.08-4.36-.14-8.37-.15-12.02-.02-3.65-.06-6.8-.14-9.44-.08-2.65-.1-4.33-.08-5.07.03-1.99.07-3.51.12-4.57.05-1.06.14-1.94.28-2.66.14-.71.28-1.4.42-2.06.15-.67.34-1.6.57-2.8-.1-.4-.67-.72-1.73-.98s-2.27-.22-3.65.12c-2.46.6-4.16,1.68-5.08,3.21s-1.47,4.1-1.63,7.68c-.08.54-.08,1.15-.02,1.81.06.67.06,1.31.01,1.96-.68-1.5-1.55-3.09-2.59-4.77-1.04-1.68-2.3-3.19-3.79-4.55-1.48-1.36-3.15-2.38-4.99-3.08-1.84-.69-3.84-.77-6.01-.24-4.63,1.14-8.46,3.6-11.5,7.38-3.03,3.78-5.32,8.05-6.86,12.81-1.54,4.77-2.41,9.68-2.63,14.75-.08,1.99-.08,3.86.01,5.63-.22.54-.46,1.08-.72,1.67-1.22,2.79-2.7,5.8-4.41,9.04-1.71,3.24-3.58,6.48-5.61,9.73-2.03,3.25-4.09,6.13-6.19,8.64-.56-4.12-1.14-8.34-1.73-12.66-.59-4.33-1.1-8.3-1.54-11.93-.44-3.62-.85-6.75-1.23-9.36-.39-2.61-.61-4.29-.67-5.03-.2-1.98-.34-3.5-.41-4.56-.07-1.05-.08-1.94-.03-2.67.05-.72.11-1.43.19-2.1s.15-1.62.23-2.85c-.14-.38-.75-.64-1.83-.78-1.09-.13-2.29.04-3.61.54-2.38.89-3.93,2.15-4.67,3.78-.74,1.63-.98,4.24-.73,7.82-.01.55.05,1.15.19,1.8.14.65.21,1.3.24,1.94-.85-1.41-1.89-2.89-3.12-4.44-1.23-1.54-2.66-2.9-4.29-4.08-1.63-1.17-3.4-2-5.31-2.47-1.91-.48-3.91-.33-6,.46-4.46,1.67-7.98,4.56-10.56,8.66-2.58,4.11-4.36,8.61-5.33,13.53-.98,4.91-1.28,9.9-.9,14.95.37,5.06,1.22,9.34,2.54,12.86,1.42,3.8,3.03,6.96,4.8,9.51,0,.29-.02.6-.03.92-.01.38-.02.77-.04,1.2-.07,2.06-.25,4.41-.55,7.03-.3,2.63-.81,5.41-1.51,8.35-.71,2.94-1.7,5.78-2.94,8.54-1.26,2.75-2.81,5.28-4.68,7.6-1.86,2.31-4.11,4.11-6.75,5.4-3.56,1.73-6.91,2.55-10.06,2.45-3.15-.11-6.01-.82-8.58-2.17-2.57-1.34-4.88-3.18-6.92-5.52-2.04-2.33-3.75-4.79-5.13-7.39-1.46-2.78-2.39-5.95-2.75-9.48-.37-3.54-.2-7.07.52-10.57.72-3.51,2.03-6.88,3.95-10.13,1.91-3.24,4.43-6.07,7.54-8.49,1.95.07,3.83,0,5.64-.22,1.82-.2,3.27-.57,4.36-1.11,1.37-.67,2.42-1.52,3.16-2.55.74-1.03,1.27-2.14,1.6-3.32.33-1.18.43-2.3.31-3.36-.12-1.07-.36-1.97-.72-2.69-.49-1-1.64-1.4-3.45-1.19-1.82.21-3.5.69-5.05,1.44-1.1.53-2.25,1.17-3.46,1.94-1.21.76-2.5,1.58-3.87,2.48-2.58-.66-5.58-1.91-9.01-3.73-3.43-1.83-6.37-4.68-8.82-8.56-3.16-5.11-5.03-10.37-5.58-15.8-.55-5.43-.16-10.52,1.18-15.29,1.34-4.77,3.47-9.02,6.39-12.75.42-.54.86-1.06,1.31-1.56.13-.14.25-.28.38-.42.34-.37.68-.73,1.02-1.07.13-.13.27-.26.4-.39.39-.38.79-.74,1.2-1.09.08-.07.15-.14.23-.21.51-.43,1.04-.85,1.57-1.24.57-.42,1.16-.8,1.76-1.17.13-.08.26-.16.39-.24.61-.36,1.22-.7,1.85-1.01,2.82-1.37,5.27-1.57,7.32-.6,2.05.98,3.83,2.9,5.35,5.77.96,1.97,1.68,4.2,2.17,6.67,0,0,0,0,0,0,0,.04.02.08.03.12.49,2.52.64,5.13.43,7.83-.08,1-.23,1.98-.41,2.96,1.91,2.93,3.7,5.56,3.7,5.56,0,0,0,0,0,.01-.07-1.28-.12-2.6-.09-3.71.04-1.81.28-3.01,1.01-2.33,2.45,2.31,4.87,4.67,7.26,7.07.06-.14.12-.28.17-.43.86-2.39,1.34-5.17,1.44-8.32.1-3.15-.17-6.48-.81-10.01-.64-3.52-1.75-6.77-3.3-9.73-.89-1.6-2.2-3.18-3.93-4.77-1.73-1.58-3.78-2.84-6.15-3.77-2.37-.93-5.07-1.36-8.08-1.31-3.02.06-6.26.93-9.72,2.62-.61.3-1.21.61-1.81.94-.46.25-.9.51-1.35.78-.12.07-.25.14-.37.21-.56.34-1.11.69-1.66,1.05,0,0,0,0-.01,0-1.23.81-2.44,1.69-3.63,2.64,0,0,0,0,0,0-.61.49-1.22.99-1.82,1.51-.04.04-.09.07-.13.11-.55.48-1.09.97-1.62,1.48-.09.08-.18.16-.26.24-.6.58-1.2,1.18-1.8,1.79-4.44,4.65-7.95,9.88-10.53,15.7-2.58,5.82-3.99,12.01-4.23,18.56-.26,6.56,1.27,12.98,4.55,19.27,1.02,2.1,2.45,3.99,4.29,5.69,1.84,1.7,3.91,3.17,6.21,4.42,2.3,1.25,4.72,2.22,7.25,2.9,2.54.68,5.07,1.08,7.61,1.2-3.07,3.19-5.86,6.72-8.37,10.6-2.51,3.87-4.41,8.04-5.68,12.48-1.27,4.46-1.77,9.1-1.51,13.93.27,4.83,1.69,9.78,4.27,14.84,2,3.88,4.63,7.08,7.89,9.61,3.26,2.53,6.88,4.35,10.86,5.45,3.98,1.11,8.14,1.45,12.5,1.02,4.36-.43,8.68-1.69,12.96-3.78,5.2-2.53,9.32-6.03,12.39-10.51,3.06-4.48,5.3-9.26,6.72-14.35,1.41-5.09,2.13-10.15,2.16-15.18,0-.81,0-1.6-.02-2.38,0-.13,0-.26-.01-.39-.02-.76-.05-1.5-.1-2.22,3.57,2.16,7.23,2.57,10.98,1.17,4.46-1.67,8-4.29,10.61-7.87,2.61-3.58,4.53-7.49,5.76-11.74.22,1.43.42,3.07.61,4.89.2,1.82.41,3.77.65,5.85-1.27,2.1-2.58,4.37-3.94,6.83-1.35,2.46-2.77,5.04-4.24,7.76-3.04,5.46-5.5,10.01-7.4,13.65-1.89,3.63-3.24,6.9-4.04,9.8-.81,2.9-1.07,5.73-.8,8.5.28,2.77,1.12,6.05,2.54,9.85,1.03,2.75,2.51,5.61,4.43,8.57,1.92,2.96,4.17,5.56,6.73,7.79,2.57,2.24,5.31,3.86,8.24,4.88,2.92,1.01,5.95.93,9.09-.23,2.09-.79,3.63-2.45,4.63-4.98,1-2.54,1.65-5.56,1.95-9.09.3-3.52.35-7.39.13-11.57-.22-4.2-.59-8.36-1.1-12.5-.52-4.14-1.06-8.04-1.63-11.73-.57-3.68-1.04-6.76-1.42-9.21-.34-2.36-.68-5-1.01-7.9-.33-2.91-.82-6.67-1.47-11.3,1.69-2.15,3.67-4.87,5.96-8.16,2.28-3.29,4.54-6.95,6.77-10.98,1.64-2.96,3.19-6.04,4.66-9.24,1.76,5.6,4.11,9.73,7.08,12.37,3.54,3.14,7.43,4.2,11.66,3.15,4.62-1.14,8.44-3.33,11.45-6.58,3.01-3.25,5.37-6.91,7.08-10.99.05,1.46.06,3.1.04,4.93-.02,1.83-.03,3.79-.04,5.89-1.5,1.94-3.07,4.05-4.7,6.33-1.63,2.28-3.33,4.68-5.11,7.21-3.65,5.08-6.63,9.31-8.93,12.7-2.3,3.39-4.01,6.48-5.15,9.26-1.14,2.79-1.73,5.57-1.78,8.35-.04,2.77.42,6.13,1.39,10.07.71,2.86,1.84,5.87,3.41,9.03,1.56,3.16,3.49,6,5.78,8.51,2.29,2.52,4.83,4.45,7.62,5.8,2.78,1.35,5.8,1.62,9.05.82,2.16-.54,3.89-2.01,5.18-4.41,1.28-2.41,2.28-5.34,2.99-8.81.71-3.47,1.2-7.29,1.48-11.48.27-4.19.39-8.37.35-12.54-.04-4.17-.12-8.11-.26-11.84-.13-3.73-.25-6.83-.34-9.31-.07-2.39-.1-5.04-.09-7.97,0-2.93-.04-6.73-.15-11.4,1.93-1.94,4.22-4.41,6.87-7.41,2.65-3.01,5.32-6.38,8-10.12,2.68-3.74,5.22-7.71,7.63-11.91,2.41-4.2,4.3-8.4,5.67-12.6.47-1.47.54-2.56.21-3.26ZM345.77,165.44c-.15,1.04-.44,2.44-.86,4.22-.41,1.78-1.08,3.63-1.99,5.54-.91,1.91-2.05,3.72-3.41,5.42-1.37,1.7-3.04,2.92-5.04,3.67-3.61,1.35-6.44,1.02-8.48-.97-2.04-1.99-3.81-4.98-5.31-8.97-1.21-3.23-2-6.8-2.39-10.72-.38-3.91-.31-7.68.24-11.29.55-3.62,1.53-6.77,2.95-9.47,1.43-2.7,3.33-4.49,5.7-5.38,1.42-.53,2.99-.25,4.7.84,1.71,1.1,3.42,3.22,5.14,6.36.34.63.7,1.36,1.07,2.2.36.84.8,1.65,1.31,2.43.51.78,1.05,1.45,1.64,1.98.58.54,1.17.75,1.78.64.7-.16,1.27.28,1.71,1.3.44,1.03.76,2.26.98,3.7.21,1.44.32,2.96.33,4.58,0,1.62-.01,2.93-.07,3.92ZM355.71,246.89c-.14,3.24-1.16,5.22-3.06,5.93-.76.29-1.53.33-2.31.13-.78-.2-1.59-.79-2.45-1.76s-1.77-2.42-2.76-4.33c-.98-1.91-2.06-4.42-3.23-7.55-1.17-3.14-1.75-6.06-1.74-8.77.01-2.71.4-5.37,1.16-7.99.75-2.61,1.76-5.21,3.01-7.78,1.26-2.58,2.55-5.25,3.9-8.03.5-1.27,1.02-2.41,1.56-3.43.54-1.01,1.07-2,1.58-2.94.35,3.54.74,7.05,1.17,10.52.43,3.47.81,6.71,1.12,9.72.32,3.02.62,5.7.89,8.03.27,2.33.49,4.12.63,5.36.49,5.34.66,9.63.52,12.88ZM414.23,140.7c-.18,1.61-.36,2.91-.53,3.89-.27,1.01-.72,2.37-1.34,4.09-.62,1.72-1.49,3.48-2.62,5.27-1.13,1.79-2.46,3.46-4.02,4.98-1.55,1.53-3.36,2.55-5.43,3.06-3.74.93-6.51.28-8.31-1.94-1.8-2.22-3.21-5.4-4.23-9.53-.82-3.35-1.2-6.99-1.13-10.92.07-3.93.59-7.66,1.54-11.19.95-3.52,2.3-6.54,4.03-9.06,1.73-2.51,3.83-4.07,6.29-4.68,1.47-.36,3,.1,4.57,1.38,1.57,1.28,3.02,3.59,4.37,6.91.27.67.53,1.44.8,2.31.27.87.61,1.73,1.02,2.57.42.84.88,1.56,1.4,2.17.51.6,1.08.88,1.69.83.71-.07,1.23.43,1.55,1.5.31,1.07.49,2.34.54,3.78.05,1.45-.03,2.98-.2,4.59ZM415.17,190.52c.02,3.49.02,6.75,0,9.79-.04,3.03-.05,5.73-.04,8.08,0,2.35,0,4.15,0,5.4-.14,5.36-.46,9.65-.98,12.86-.51,3.2-1.75,5.05-3.72,5.54-.79.19-1.55.15-2.3-.14-.76-.28-1.5-.96-2.23-2.04-.74-1.07-1.48-2.61-2.24-4.62-.76-2-1.53-4.63-2.34-7.88-.8-3.25-1.04-6.22-.71-8.91.33-2.69,1.01-5.29,2.07-7.8,1.05-2.5,2.35-4.97,3.9-7.38,1.54-2.42,3.14-4.92,4.8-7.53.64-1.2,1.29-2.27,1.95-3.22.65-.94,1.29-1.86,1.91-2.74-.06,3.56-.08,7.09-.05,10.59Z"/>
    <path d="M251.29,102.12c.04.28.09.55.12.84.02-.09-.02-.39-.12-.84Z"/>
    <path d="M249.4,180.96c-.45-.23-.99-.24-1.63-.03-.63.21-1.19.67-1.69,1.37-.42.59-1.15,1.85-2.2,3.78-1.05,1.93-2.36,4.19-3.92,6.77-1.56,2.58-3.28,5.33-5.14,8.22-1.87,2.9-3.76,5.59-5.7,8.09s-3.81,4.62-5.61,6.37c-1.8,1.75-3.41,2.75-4.81,2.99-1.2.21-2.39-.15-3.58-1.08-1.18-.93-1.95-2.65-2.28-5.16-.19-1.71-.31-4.01-.34-6.88s-.07-5.9-.1-9.09c2.44-5.56,4.59-11.36,6.49-17.4,1.89-6.04,3.45-12.02,4.69-17.94,1.23-5.92,2.09-11.6,2.54-17.03.45-5.43.39-10.35-.16-14.79-.43-3.63-.92-6.48-1.48-8.54-.57-2.06-1.21-3.57-1.94-4.53-.73-.96-1.52-1.49-2.36-1.6-.84-.11-1.76-.08-2.76.09-.8.14-1.62.44-2.47.89-.77.34-1.56.79-2.39,1.34-.83.56-1.68,1.32-2.54,2.29-.68,5.57-1.26,10.87-1.73,15.89-.47,5.02-.89,9.47-1.25,13.33-.36,4.49-.72,8.67-1.07,12.53-.16,2.6-.31,5.36-.43,8.25-.12,2.9-.28,5.86-.47,8.88-.54-1.35-1.27-2.76-2.2-4.25-.93-1.49-2-2.82-3.24-3.99-1.23-1.18-2.62-2.07-4.16-2.67-1.55-.61-3.17-.76-4.87-.47-3.89.68-7.58,2.47-11.03,5.38-3.46,2.91-6.38,6.55-8.76,10.93-2.38,4.37-4.12,9.33-5.22,14.87-.82,4.14-1.14,8.37-.96,12.68-.51,1.81-1.05,3.64-1.63,5.55-.91,2.96-1.82,5.7-2.74,8.23-.92,2.53-1.89,4.69-2.9,6.48-1.01,1.8-1.99,2.89-2.92,3.28-1.12.47-2.1.57-2.92.31-.82-.26-1.55-.75-2.18-1.48-.63-.72-1.17-1.57-1.63-2.53-.46-.96-.81-1.88-1.07-2.77-.31-1.52-.56-2.79-.76-3.8-.21-1.01-.38-1.9-.53-2.66-.15-.76-.3-1.52-.46-2.28-.15-.76-.31-1.6-.47-2.52-.86-4.69-1.57-8.52-2.14-11.46-.57-2.95-1.05-5.28-1.43-6.98-.38-1.71-.7-2.87-.96-3.47-.26-.61-.47-.99-.64-1.13-.23-.02-.62.09-1.18.33-.47.2-1.13.53-1.98.99-.85.46-1.87,1.11-3.06,1.94.72-3.81.49-6.55-.69-8.19-1.18-1.65-2.63-2.67-4.33-3.06-2.02-.36-4.39-.25-7.11.33-2.23.71-4.63,2.59-7.2,5.64-2.58,3.05-4.85,6.94-6.84,11.66-1.98,4.73-3.43,10.03-4.33,15.9-.91,5.87-.82,11.93.25,18.18.16,1,.34,1.95.53,2.87-.61-.67-1.25-1.34-1.95-1.98-2.23-2.05-4.81-3.8-7.73-5.25-2.93-1.45-6.08-2.51-9.46-3.18-3.38-.66-6.88-.88-10.51-.64,1.76-4.48,3.06-8.99,3.92-13.53.86-4.54,1.32-8.94,1.39-13.21.07-4.26-.28-8.29-1.07-12.1-.79-3.8-1.98-7.19-3.6-10.13-1.9-3.37-4.31-6.15-7.24-8.33-2.93-2.18-6.28-3.57-10.03-4.17-3.76-.59-7.87-.31-12.34.86-4.46,1.17-9.15,3.39-14.02,6.67-1.18.79-2.29,1.6-3.33,2.41-1.04.82-2.09,1.71-3.15,2.67-1.1-.36-2.72-.13-4.85.69-.96.4-1.84.8-2.66,1.23-.81.43-1.47.99-1.98,1.69-.5.71-.82,1.65-.94,2.83-.13,1.18.04,2.66.5,4.43-1.82,2.56-3.66,5.33-5.52,8.28-1.86,2.96-3.61,6.21-5.26,9.76.11,1.26.44,2.42.96,3.48.52,1.06,1.08,1.93,1.67,2.63.71.87,1.43,1.67,2.16,2.4,1.64,1.34,3.19,1.8,4.67,1.35,1.48-.44,2.45-1.67,2.92-3.7.45-1.89.93-3.68,1.44-5.36.52-1.69,1.08-3.35,1.7-4.98.96,2.89,2.44,7.37,4.43,13.42,1.98,6.06,4.21,12.83,6.69,20.34,2.46,7.5,5.01,15.25,7.64,23.26,2.63,8,5.07,15.43,7.35,22.27,2.27,6.84,4.18,12.64,5.73,17.4,1.55,4.76,2.49,7.58,2.83,8.45.51,1.49.9,2.66,1.17,3.52.27.85.51,1.52.7,2,.2.48.43.91.68,1.28.25.38.65.88,1.19,1.49.88,1.12,1.76,1.85,2.64,2.16.89.32,1.85.44,2.89.35.59-.03,1.54-.21,2.85-.54,1.3-.33,2.86-.79,4.66-1.38,1.79-.6,3.74-1.38,5.83-2.36,2.09-.98,4.23-2.2,6.42-3.67,5.89-3.95,11.08-8.6,15.56-13.93,4.48-5.33,7.91-11.01,10.26-17.05,2.35-6.04,3.46-12.25,3.33-18.63-.06-2.92-.47-5.79-1.18-8.62.19.18.39.35.59.51,1.83,1.49,3.68,2.37,5.54,2.63,1.87.26,3.46.13,4.77-.42,2.72-1.36,5.28-3.14,7.66-5.34,2.05-1.95,4-4.49,5.88-7.64,1.87-3.14,3.15-7.05,3.84-11.73.96,2.56,2,4.6,3.12,6.11,1.12,1.51,2.13,2.68,3.04,3.51,1.07.99,2.16,1.63,3.27,1.93,1.08.21,2.22.2,3.44-.04,1.22-.23,2.44-.66,3.67-1.28,1.23-.62,2.37-1.37,3.43-2.25,1.05-.88,1.94-1.8,2.64-2.75,1.01-1.52,2.1-3.87,3.25-7.04.82-2.26,1.61-4.66,2.38-7.18.11.25.23.5.35.73,1.25,2.47,2.63,4.38,4.16,5.77,1.52,1.38,3.15,2.29,4.87,2.71,1.72.42,3.27.51,4.68.27,3.9-.67,7.73-2.76,11.5-6.23,3.77-3.48,7.35-7.93,10.74-13.36.09,1.74.15,2.96.17,3.68.17,1.62.68,3.18,1.5,4.68.83,1.51,1.85,2.82,3.08,3.94,1.22,1.13,2.53,1.98,3.92,2.56,1.39.59,2.78.76,4.18.51,1.9-.33,3.91-1.32,6.05-2.97,2.12-1.66,4.3-3.7,6.5-6.14,2.2-2.44,4.35-5.18,6.45-8.22,2.1-3.04,4.06-6.1,5.9-9.2,1.83-3.1,3.48-6.08,4.94-8.96,1.45-2.88,2.62-5.37,3.49-7.47.59-1.34.82-2.4.68-3.21-.14-.8-.44-1.31-.89-1.54ZM45.28,244.47c-.35-.99-.73-1.95-1.12-2.91-1.85-5.1-3.57-10.24-5.2-15.38-1.62-5.14-3.16-10.03-4.62-14.66-1.46-4.63-2.77-8.91-3.94-12.83-1.17-3.92-2.15-7.2-2.94-9.84,2.55-3.3,5.34-5.96,8.36-8,4.55-3.05,9.01-4,13.39-2.84,4.37,1.16,8.26,4.8,11.65,10.95,1.39,2.61,2.51,5.7,3.38,9.27.87,3.57,1.4,7.27,1.6,11.11.2,3.84,0,7.69-.58,11.56-.58,3.87-1.54,7.35-2.88,10.45-1.12.51-2.28,1.07-3.45,1.68-1.18.61-2.36,1.31-3.53,2.1-2.19,1.47-4.18,3.48-5.96,6.01-1.77,2.54-2.8,4.69-3.08,6.46-.37-1.09-.73-2.13-1.09-3.12ZM94.98,281.26c-1.36,5.07-3.48,9.69-6.35,13.88-2.87,4.18-6.2,7.55-9.98,10.08-1.1.74-2.16,1.33-3.2,1.79-.96.4-1.91.79-2.86,1.19-.95.4-1.83.55-2.62.47-3.15-7.78-6.1-15.1-8.88-21.97-2.78-6.86-5.14-12.94-7.1-18.22-2.38-6.09-4.51-11.81-6.38-17.15.59.7,1.38,1.33,2.37,1.89.99.56,2.07.9,3.25,1.02,1.18.12,2.42-.03,3.71-.47,1.29-.44,2.55-1.38,3.79-2.82,3.67-4.54,6.73-9.16,9.19-13.86,1.82,0,3.69.18,5.59.55,1.9.37,3.79,1,5.66,1.88,1.88.88,3.65,2.07,5.33,3.56,1.68,1.5,3.2,3.45,4.56,5.83,2.96,5.33,4.7,10.8,5.21,16.37.51,5.58.09,10.9-1.28,15.97ZM134.36,226.37c-.27,1.32-.7,2.82-1.26,4.48-.57,1.67-1.3,3.34-2.19,5.03-.89,1.69-1.87,3.17-2.93,4.43-1.07,1.27-2.24,2.2-3.53,2.79-1.29.59-2.66.59-4.12-.01-.8-.33-1.67-1.36-2.62-3.11-.95-1.75-1.77-3.9-2.45-6.48-.68-2.56-1.18-5.41-1.49-8.52-.31-3.11-.27-6.17.12-9.19.91-7.3,2.19-12.59,3.85-15.86,1.66-3.27,3.17-4.7,4.56-4.29.44.26.84.7,1.21,1.31.33.52.63,1.3.9,2.35.27,1.04.34,2.47.22,4.28.67-.5,1.36-.95,2.07-1.36.71-.4,1.26-.8,1.65-1.18.48-.42.94-.77,1.37-1.06.34-.25.71.45,1.12,2.09.41,1.64.87,3.73,1.38,6.26.51,2.54.96,5.2,1.36,8,.39,2.8.75,5.23,1.06,7.3.1.51.01,1.43-.26,2.75ZM204.03,193.89c-.02,1.96-.07,3.92-.13,5.89-.86,1.59-1.98,3.58-3.37,5.98-1.39,2.4-2.93,4.78-4.63,7.13-1.71,2.35-3.51,4.42-5.41,6.18-1.91,1.77-3.76,2.81-5.56,3.12-2.4.41-4.48-.31-6.24-2.17-1.76-1.86-2.95-5.2-3.58-10.03-.32-3.03-.11-6.56.64-10.6.74-4.04,1.88-7.91,3.39-11.62,1.52-3.71,3.27-6.95,5.27-9.71,1.99-2.76,4.13-4.34,6.43-4.74,1.6-.28,2.96.13,4.07,1.23,1.12,1.09,2.04,2.42,2.77,4,.73,1.57,1.28,3.12,1.65,4.65.37,1.53.6,2.6.7,3.2.21,1.2.56,2.04,1.06,2.52.49.48,1.25.38,2.26-.31.18-.13.34-.26.47-.39.13-.13.29-.26.48-.39-.16,2.08-.24,4.11-.27,6.06Z"/>
  </g>
  <g class="logo-banner">
    <path class="fill-primary-dark" data-name="Digital Banner" d="M110.01,295.73c63.89-56.57,166.69-77.04,230.21-25.23,19.48,15.89,40.55,42.8,45.95-11.26,0,0,42.7,74.18-51.36,63.97-7.46-.81-33.16-1.4-39.87-2.7-38.58-7.5-138.98,9.01-143.48,44.15-9.01-21.62-11.55-38.34.76-52.47,5.28-6.06-22.48-18.42-42.2-16.46Z"/>
    <g class="logo-wordmark-digital">
      <g class="logo-wordmark-digital-shadow fill-primary-darker">
        <path d="M179.82,317.72c-.43-.39-.79-1.01-1.09-1.89l-11.48-33.36c-.41-1.33-.45-2.4-.12-3.23.3-.77.91-1.52,1.81-2.26,1-.67,2.08-1.22,3.23-1.64.61-.21,1.21-.38,1.78-.51,2.97-.64,5.77-.46,8.39.56,2.49.96,4.88,2.69,7.16,5.16-.18-.27-.37-.54-.56-.79-2.74-3.35-5.63-5.61-8.67-6.79-2.7-1.05-5.59-1.24-8.65-.57-.59.13-1.2.3-1.83.52-1.19.43-2.3,1-3.33,1.7-.93.76-1.56,1.54-1.87,2.33-.34.85-.3,1.96.12,3.33l11.83,34.39c.33.96.73,1.64,1.21,2.04.63.52,1.31.85,2.05,1.01Z"/>
        <path d="M157.29,281.44s-.02,0-.04-.01l-3.21,2.68c.44-.1,1.82-.35,4.14-.75.11-.02.23-.02.34-.03l-.28-.82c-.17-.5-.49-.86-.95-1.06Z"/>
        <path d="M197.78,280.65c1.34,2.1,2.45,4.35,3.29,6.78,1.23,3.58,1.77,7.13,1.61,10.64-.14,3.49-.77,6.6-1.88,9.32-1.12,2.78-2.91,5.38-5.36,7.81-2.39,2.36-5.11,4.06-8.16,5.11-3.38,1.16-6.95,1.7-10.72,1.6-3.05-.08-5.56-.14-7.56-.17-.9.53-1.47.84-1.68.93,1.93-.03,5.74.04,11.42.19,3.65.09,7.12-.43,10.4-1.55,2.96-1.02,5.6-2.67,7.91-4.96,2.38-2.36,4.12-4.88,5.2-7.58,1.08-2.64,1.69-5.66,1.82-9.04.15-3.41-.37-6.85-1.56-10.32-1.11-3.23-2.7-6.14-4.73-8.76Z"/>
        <path d="M209.45,263.22c-.63.92-1.5,1.48-2.6,1.67-1.1.2-2.1-.03-3.01-.67-.11-.08-.19-.17-.29-.25.01.12,0,.24.03.36.19,1.08.73,1.94,1.62,2.56.88.63,1.86.84,2.92.65s1.9-.73,2.52-1.62c.61-.89.82-1.88.63-2.96-.15-.86-.53-1.56-1.11-2.13.02.86-.21,1.66-.71,2.39Z"/>
        <path d="M205.37,276.39c-.2-.11-.45-.19-.72-.26-1.58.93-2.74,1.64-3.45,2.11.24-.04,1.36-.03,3.36.04.64.01,1.17.08,1.59.21l-.2-1.11c-.09-.51-.29-.84-.59-.99Z"/>
        <path d="M209.48,304.43c-.85.99-1.91,1.75-3.22,2.25l17.09-3.04c-1.49-.04-2.78-.38-3.89-.99l-9.98,1.78Z"/>
        <path d="M216.08,298.89c.25.34.52.64.8.93l-4.94-27.75c-.22.11-.43.22-.64.33l4.67,26.24.11.26Z"/>
        <path d="M241.2,301.26c-.01-.19-.03-.39-.04-.62l-.09-1.39c-1.94,1.58-4.12,2.45-6.53,2.61-2.51.17-4.86-.45-7.04-1.86-2.16-1.39-3.96-3.4-5.4-6.03-1.41-2.6-2.23-5.59-2.46-8.99-.01-.17-.01-.34-.02-.51-.04.81-.03,1.64.02,2.48.23,3.4,1.04,6.39,2.46,8.99,1.44,2.63,3.24,4.65,5.4,6.03,2.18,1.41,4.53,2.03,7.04,1.86,2.41-.16,4.59-1.03,6.53-2.61l.09,1.39c.02.23.03.43.04.62,0,.13,0,.25.02.38.04-.74.04-1.52-.01-2.36Z"/>
        <path d="M232.19,311.76c.05-.26.07-.52.05-.79-.02-.28-.07-.56-.14-.83-.14.48-.38.95-.75,1.39.24.11.52.19.83.23Z"/>
        <path d="M242.77,310.83c-2.83,2.3-5.76,3.55-8.81,3.75-.25.02-.49.02-.74.02-3.27-.03-5.8-.87-7.58-2.51-.71-.66-1.16-1.39-1.35-2.2-.09.41-.14.85-.11,1.32.07,1.07.56,2.02,1.46,2.85,1.78,1.64,4.31,2.48,7.58,2.51.25,0,.5,0,.74-.02,3.05-.2,5.99-1.45,8.81-3.75,3.04-2.48,4.55-6.01,4.51-10.6l-.04-.67c-.24,3.96-1.72,7.06-4.46,9.3Z"/>
        <path d="M239.42,274.47c-.07-1.05-.26-1.73-.57-2.04l-.34-.44c-1.71-1.48-3.59-2.15-5.63-2.01-.14,0-.28.02-.4.03-2.36.24-4.1,1.79-5.21,4.66-.72,1.86-1.04,4.53-.96,7.98.07-2.51.38-4.52.96-6.01,1.11-2.87,2.85-4.42,5.21-4.66.12,0,.26-.02.4-.03,2.04-.14,3.91.54,5.63,2.01l.34.44c.31.31.5.99.57,2.04l1.14,17.21c.05-.24.09-.46.09-.68l-.02-.28-1.21-18.23Z"/>
        <path d="M245.87,272.96c-.25.22-.36.59-.33,1.11l.08,1.27c.06-.16.13-.3.25-.4.41-.36,1.02-.66,1.83-.9,1.89-.54,3.07-.85,3.54-.92-.62-.24-1.76-.61-3.4-1.1-.05.01-.09.03-.14.04-.81.24-1.42.54-1.83.9Z"/>
        <path d="M262.02,262.99c.72.81,1.62,1.24,2.7,1.3,1.08.06,2.02-.28,2.82-1.01.8-.73,1.23-1.64,1.29-2.74.02-.29,0-.58-.04-.85-.19.29-.4.56-.67.81-.83.75-1.79,1.1-2.91,1.04-1.11-.06-2.04-.51-2.78-1.34-.47-.53-.76-1.13-.91-1.78-.28.51-.45,1.08-.49,1.71-.06,1.1.27,2.05.99,2.86Z"/>
        <path d="M260.3,296.12l1.2-22.63c.03-.51-.09-.88-.35-1.1-.29-.26-.72-.49-1.28-.68-2.01.62-3.46,1.1-4.32,1.43.24.01,1.33.28,3.27.81.91.23,1.57.52,1.97.88.25.21.36.57.33,1.07l-1.1,20.77c.07-.1.14-.19.2-.29l.07-.24Z"/>
        <path d="M254.03,301.98l17.33.92c-1.4-.37-2.56-.97-3.49-1.78l-10.26-.54c-1.03.75-2.22,1.22-3.58,1.41Z"/>
        <path d="M274.37,303.2l17.23,2.15c-1.4-.48-2.53-1.18-3.4-2.08l-10.1-1.26c-1.1.69-2.33,1.1-3.72,1.19Z"/>
        <path d="M281.56,297.82l2.97-23.84-6.54-.82-.25-.03c-1.52-.1-2.83.04-3.96.43l-2.82,3.55c1.42-1.21,3.39-1.74,5.91-1.56l.24.03,6.35.79-2.83,22.69c.29-.31.57-.63.83-.99l.09-.24Z"/>
        <path d="M286.03,262c.06-.47-.03-.85-.27-1.12-.17-.2-.49-.4-.94-.61-2.28.52-4.04.96-5.27,1.33,1.08.38,2.17.74,3.25,1.1.97.32,1.58.64,1.85.96.23.27.31.63.26,1.09l-.75,6.01.76.09,1.1-8.85Z"/>
        <path d="M296.25,279.93c-.06.52-.19,1.02-.37,1.5l6.43-8.1c-.23.2-.48.37-.73.53l-4.24,5.34c.19-.5.31-1.01.38-1.54.17-1.33-.48-2.09-1.93-2.27-.04,0-.09-.01-.15-.02l-.12-.02-4.89-.61-.31,2.48,3.8.47.12.02c.06,0,.11.01.15.02,1.41.18,2.04.91,1.88,2.2Z"/>
        <path d="M319.11,279.2c-1.28-1.84-2.77-2.92-4.46-3.22-.3-.05-.61-.11-.91-.16-2.3-.41-4.36.68-6.18,3.26-.14.2-.28.43-.42.65,1.42-1.36,2.97-1.89,4.66-1.59.3.05.59.11.89.16,1.64.29,3.08,1.33,4.32,3.12l.22.5c.22.37.24,1.05.06,2.05l-3.27,18.24c-.13.71-.3,1.23-.51,1.56.43-.22.87-.48,1.32-.79l.39-.4c.36-.27.64-.92.82-1.96l3.37-18.8c.18-1.04.16-1.74-.06-2.12l-.22-.51Z"/>
        <path d="M325.43,282.91l-.14.76c.11,0,.22-.02.34-.03,1.93-.08,3.11-.09,3.54-.04-.58-.39-1.55-1-2.91-1.8-.09.03-.18.07-.25.11-.3.16-.5.49-.59.99Z"/>
        <path d="M323.25,306.06c-1.57.28-3.5.61-5.83.99-3.63.59-6.61.67-8.95.25-2.68-.48-4.96-1.67-6.84-3.58-1.83-1.86-3.11-4.19-3.84-7.01-.72-2.75-.77-5.9-.13-9.46.46-2.59,1.37-4.92,2.66-7.03-.32.38-.63.78-.92,1.2-1.61,2.3-2.68,4.9-3.2,7.82-.62,3.45-.58,6.51.13,9.18.71,2.73,1.95,5,3.72,6.8,1.82,1.85,4.04,3.01,6.64,3.48,2.27.41,5.16.32,8.68-.25,5.05-.82,8.27-1.41,9.65-1.75-.29-.06-.88-.28-1.77-.63Z"/>
        <path d="M332.85,306.67l.11-.23,6.63-35.49c.1-.51.03-.89-.2-1.14-.28-.34-.77-.66-1.44-.97-3.33.55-5.42.93-6.25,1.11.17.05,1.25.48,3.24,1.28.83.34,1.41.7,1.72,1.09.22.25.28.61.19,1.11l-6.43,34.42-.1.23c-.43.52-.88.97-1.36,1.36,1.47-.49,2.77-1.41,3.88-2.76Z"/>
        <path d="M324.01,311.17l17.06,3.19c-1.41-.58-2.51-1.37-3.34-2.37l-9.84-1.84c-1.16.66-2.45,1.01-3.89,1.02Z"/>
      </g>
      <g class="logo-wordmark-digital-text fill-white">
        <path d="M187.28,320.31c3.05-1.05,5.77-2.75,8.16-5.11,2.46-2.43,4.24-5.03,5.36-7.81,1.11-2.72,1.74-5.83,1.88-9.32.16-3.52-.38-7.07-1.61-10.64-.84-2.43-1.95-4.68-3.29-6.78-.63-.99-1.3-1.96-2.05-2.88-2.33-2.86-4.77-5-7.33-6.41-3.01-1.67-6.09-2.7-9.22-3.08-3.33-.39-6.25-.16-8.76.71-.33.11-.63.22-.92.32-3.42,1.18-6.3,2.68-8.62,4.5l-9.78,8.16c.45-.11,1.88-.36,4.27-.77.66-.11,1.28-.03,1.88.24.01,0,.02,0,.04.01.46.21.78.56.95,1.06l.28.82,11.55,33.57c.19.54.18.98-.03,1.29-.32.5-.89,1-1.72,1.51-2.02,1.21-3.21,1.88-3.55,2.03.96-.01,2.37,0,4.21.03,2,.03,4.52.09,7.56.17,3.76.09,7.34-.44,10.72-1.6ZM164.72,280.28c-.42-1.37-.46-2.48-.12-3.33.31-.79.94-1.57,1.87-2.33,1.03-.7,2.14-1.26,3.33-1.7.63-.22,1.24-.39,1.83-.52,3.07-.66,5.95-.47,8.65.57,3.04,1.17,5.93,3.44,8.67,6.79.19.25.37.52.56.79,1.54,2.27,2.95,5.25,4.22,8.95.11.3.2.59.29.85,1.28,3.73,1.86,7.19,1.74,10.38-.13,3.31-.91,6.58-2.34,9.81-1.74,3.18-3.87,5.21-6.4,6.08-.07.02-.14.05-.23.08-2.73.94-5.04,1.28-6.93,1.03-.02,0-.04-.01-.06-.02-.74-.16-1.42-.49-2.05-1.01-.48-.4-.88-1.07-1.21-2.04l-11.83-34.39Z"/>
        <path d="M203.55,263.97c.1.08.18.17.29.25.91.65,1.92.87,3.01.67,1.1-.2,1.96-.75,2.6-1.67.5-.73.73-1.53.71-2.39,0-.22-.02-.44-.06-.67-.2-1.12-.75-2-1.67-2.64-.91-.64-1.92-.87-3.01-.67-1.1.2-1.96.75-2.6,1.67-.63.92-.85,1.94-.65,3.06.17.99.64,1.78,1.37,2.39Z"/>
        <path d="M222.56,302.1c-2.36-.07-4.25-.84-5.68-2.29-.28-.29-.55-.59-.8-.93l-.11-.26-4.67-26.24-.51-2.84c-.87.43-1.65.84-2.36,1.24-4.46,2.51-7.36,4.22-8.71,5.13.24-.04,1.4-.03,3.47.04.57.01,1.05.07,1.46.17.28.07.53.15.72.26.3.16.5.49.59.99l.2,1.11,3.77,21.2-.02.25c-.88,2.59-2.54,4.35-4.97,5.29l4.54-.81,9.98-1.78,3.09-.55Z"/>
        <path d="M241.55,268.25c-3.54-.99-6.42-1.4-8.65-1.26-2.86.19-5.33,1.13-7.42,2.82-2,1.62-3.53,3.8-4.59,6.54-.98,2.55-1.41,5.25-1.28,8.11,0,.17,0,.34.02.51.23,3.4,1.05,6.39,2.46,8.99,1.44,2.63,3.24,4.65,5.4,6.03,2.18,1.41,4.53,2.03,7.04,1.86,2.41-.16,4.59-1.03,6.53-2.61l.09,1.39c.01.23.03.43.04.62.06.84.06,1.62.01,2.36-.11,1.9-.53,3.48-1.28,4.74-.82,1.32-2.21,2.28-4.15,2.88-1.01.32-1.89.5-2.63.55-.35.02-.67.01-.95-.03-.32-.04-.6-.11-.83-.23.37-.45.61-.91.75-1.39.11-.37.16-.75.14-1.15-.07-1.11-.54-2.08-1.4-2.92-.86-.83-1.85-1.21-2.96-1.14-1.13.08-2.06.53-2.79,1.37-.69.79-1,1.77-.92,2.95.01.22.06.44.11.65.19.81.64,1.54,1.35,2.2,1.78,1.64,4.31,2.48,7.58,2.51.25,0,.5,0,.74-.02,3.05-.2,5.99-1.45,8.81-3.75,2.75-2.24,4.23-5.34,4.46-9.3.03-.43.05-.86.05-1.3l-1.65-24.9-.08-1.27c-.03-.51.08-.88.33-1.11.41-.36,1.02-.66,1.83-.9.05-.01.09-.03.14-.04,1.8-.51,2.94-.81,3.4-.88-1.23-.48-4.46-1.44-9.69-2.89ZM240.56,293.66c-.11.49-.32,1.02-.66,1.61-.98,1.7-2.51,2.62-4.56,2.75-2.68.18-4.77-.8-6.28-2.94-1.47-2.16-2.35-5.51-2.65-10.06-.06-.84-.08-1.62-.1-2.38-.08-3.45.24-6.12.96-7.98,1.11-2.87,2.85-4.42,5.21-4.66.12,0,.26-.02.4-.03,2.04-.14,3.91.54,5.63,2.01l.34.44c.31.31.5.99.57,2.04l1.21,18.23.02.28c0,.21-.03.44-.09.68Z"/>
        <path d="M266.47,296.73l-.05-.28,1.56-29.5c-.94.22-1.8.44-2.58.67-4.91,1.44-8.13,2.44-9.65,3.03.25.01,1.37.29,3.37.83.28.07.52.15.75.23.55.19.98.42,1.28.68.26.22.37.59.35,1.1l-1.2,22.63-.07.24c-.06.1-.14.19-.2.29-1.43,2.13-3.37,3.38-5.84,3.73l3.42.18,10.26.54,4.19.22c-2.73-.72-4.59-2.26-5.59-4.61Z"/>
        <path d="M265.2,261.53c1.11.06,2.08-.29,2.91-1.04.27-.25.48-.52.67-.81.39-.59.62-1.26.66-2.02.06-1.13-.28-2.12-1.02-2.95-.74-.83-1.67-1.28-2.78-1.34-1.11-.06-2.08.29-2.91,1.04-.83.75-1.27,1.7-1.33,2.83-.02.41.03.8.11,1.18.15.65.44,1.25.91,1.78.74.83,1.67,1.28,2.78,1.34Z"/>
        <path d="M295.5,275.35l.12.02c.06,0,.11.01.15.02,1.45.18,2.1.94,1.93,2.27-.07.53-.19,1.05-.38,1.54l4.24-5.34,2.39-3.01c-1.47,1.25-3.5,1.79-6.1,1.61l-.25-.03-6.61-.82,1.95-15.67c-.94.16-1.81.32-2.62.49-4.59.97-7.87,1.74-9.84,2.33,1.12.39,2.23.77,3.35,1.14.38.13.69.25.97.38.44.2.77.41.94.61.24.28.32.65.27,1.12l-1.1,8.85-.76-.09-4.06-.51h-.12c-.06-.02-.11-.03-.15-.03-1.45-.18-2.1-.94-1.93-2.27.07-.53.19-1.05.38-1.54l-6.62,8.35c.61-.52,1.33-.91,2.13-1.19,1.13-.38,2.45-.53,3.96-.43l.25.03,6.54.82-2.97,23.84-.09.24c-.26.36-.54.69-.83.99-1.48,1.57-3.3,2.44-5.48,2.59l2.93.37,10.1,1.26,4.72.59c-2.67-.91-4.42-2.58-5.24-4.99l-.03-.28,2.66-21.36.31-2.48,4.89.61Z"/>
        <path d="M297.79,296.71c.73,2.82,2.01,5.15,3.84,7.01,1.88,1.91,4.16,3.1,6.84,3.58,2.34.42,5.32.33,8.95-.25,2.33-.38,4.25-.71,5.83-.99,1.94-.35,3.33-.62,4.12-.82-.44-.1-1.58-.54-3.41-1.3-.78-.33-1.35-.69-1.72-1.1-.21-.23-.27-.6-.17-1.13l3.23-18.04.14-.76c.09-.51.29-.84.59-.99.08-.04.17-.07.25-.11.46-.18,1.03-.29,1.74-.32,1.99-.08,3.2-.1,3.65-.04-1.22-.83-4.12-2.54-8.7-5.14-3.2-1.81-5.97-2.93-8.3-3.34-2.68-.48-5.24-.15-7.66.99-2.36,1.11-4.37,2.86-6.03,5.24-.23.33-.43.68-.64,1.03-1.29,2.11-2.2,4.44-2.66,7.03-.64,3.56-.59,6.71.13,9.46ZM319.39,281.83l-3.37,18.8c-.18,1.04-.46,1.69-.82,1.96l-.39.4c-.44.31-.88.57-1.32.79-1.37.69-2.7.92-3.98.69-.3-.05-.61-.11-.91-.16-2.3-.41-3.85-2.15-4.67-5.21-.63-2.36-.53-5.82.29-10.39.71-3.95,1.68-6.93,2.91-8.97.14-.23.27-.45.42-.65,1.83-2.59,3.89-3.68,6.18-3.26.3.05.61.11.91.16,1.69.3,3.17,1.38,4.46,3.22l.22.51c.23.38.25,1.08.06,2.12Z"/>
        <path d="M339,307.85v-.29s7.89-42.24,7.89-42.24c-.94.08-1.82.19-2.64.33-5.52.9-8.84,1.48-9.96,1.73.18.05,1.29.49,3.34,1.32.12.05.23.1.34.15.67.31,1.16.63,1.44.97.23.25.29.63.2,1.14l-6.63,35.49-.11.23c-1.12,1.35-2.41,2.27-3.88,2.76-.82.27-1.7.42-2.63.43l1.56.29,9.84,1.84,6.19,1.16c-2.61-1.08-4.26-2.84-4.93-5.3Z"/>
      </g>
    </g>
  </g>

</svg>
